<mxfile host="app.diagrams.net" modified="2022-03-25T05:22:31.113Z" agent="5.0 (Windows NT 10.0; Win64; x64) AppleWebKit/537.36 (KHTML, like Gecko) Chrome/99.0.4844.82 Safari/537.36" etag="wN3TO-BgY2FpiDRk20Ye" version="17.2.2" type="github">
  <diagram id="_0zbhSiaQcW8eoYGaH8a" name="Page-1">
    <mxGraphModel dx="755" dy="375" grid="1" gridSize="10" guides="1" tooltips="1" connect="1" arrows="1" fold="1" page="1" pageScale="1" pageWidth="827" pageHeight="1169" math="0" shadow="0">
      <root>
        <mxCell id="0" />
        <mxCell id="1" parent="0" />
        <mxCell id="kI7Ht498mfInv19REZDN-1" value="" style="whiteSpace=wrap;html=1;aspect=fixed;" vertex="1" parent="1">
          <mxGeometry x="195" y="100" width="550" height="550" as="geometry" />
        </mxCell>
        <mxCell id="kI7Ht498mfInv19REZDN-2" value="User" style="shape=umlActor;verticalLabelPosition=bottom;verticalAlign=top;html=1;outlineConnect=0;" vertex="1" parent="1">
          <mxGeometry x="80" y="220" width="30" height="60" as="geometry" />
        </mxCell>
        <mxCell id="kI7Ht498mfInv19REZDN-3" style="edgeStyle=orthogonalEdgeStyle;rounded=0;orthogonalLoop=1;jettySize=auto;html=1;exitX=0;exitY=0.5;exitDx=0;exitDy=0;" edge="1" parent="1">
          <mxGeometry relative="1" as="geometry">
            <mxPoint x="120" y="230" as="targetPoint" />
            <mxPoint x="420" y="230.00000000000006" as="sourcePoint" />
            <Array as="points">
              <mxPoint x="180" y="230" />
              <mxPoint x="180" y="230" />
            </Array>
          </mxGeometry>
        </mxCell>
        <mxCell id="kI7Ht498mfInv19REZDN-22" style="edgeStyle=orthogonalEdgeStyle;rounded=0;orthogonalLoop=1;jettySize=auto;html=1;exitX=0.5;exitY=0;exitDx=0;exitDy=0;entryX=0.5;entryY=1;entryDx=0;entryDy=0;entryPerimeter=0;dashed=1;" edge="1" parent="1" source="kI7Ht498mfInv19REZDN-4" target="kI7Ht498mfInv19REZDN-20">
          <mxGeometry relative="1" as="geometry">
            <Array as="points">
              <mxPoint x="410" y="180" />
              <mxPoint x="100" y="180" />
            </Array>
          </mxGeometry>
        </mxCell>
        <mxCell id="kI7Ht498mfInv19REZDN-4" value="Choose A Meal" style="ellipse;whiteSpace=wrap;html=1;" vertex="1" parent="1">
          <mxGeometry x="350" y="191" width="120" height="80" as="geometry" />
        </mxCell>
        <mxCell id="kI7Ht498mfInv19REZDN-5" value="&lt;font style=&quot;font-size: 18px&quot;&gt;Meal Management&lt;/font&gt;" style="text;html=1;strokeColor=none;fillColor=none;align=center;verticalAlign=middle;whiteSpace=wrap;rounded=0;" vertex="1" parent="1">
          <mxGeometry x="379.75" y="125" width="180.5" height="30" as="geometry" />
        </mxCell>
        <mxCell id="kI7Ht498mfInv19REZDN-6" style="edgeStyle=orthogonalEdgeStyle;rounded=0;orthogonalLoop=1;jettySize=auto;html=1;exitX=0;exitY=0.5;exitDx=0;exitDy=0;" edge="1" parent="1" source="kI7Ht498mfInv19REZDN-31">
          <mxGeometry relative="1" as="geometry">
            <mxPoint x="120" y="230" as="targetPoint" />
            <Array as="points">
              <mxPoint x="260" y="440" />
              <mxPoint x="260" y="230" />
            </Array>
            <mxPoint x="350" y="430" as="sourcePoint" />
          </mxGeometry>
        </mxCell>
        <mxCell id="kI7Ht498mfInv19REZDN-8" style="edgeStyle=orthogonalEdgeStyle;rounded=0;orthogonalLoop=1;jettySize=auto;html=1;exitX=0;exitY=0.5;exitDx=0;exitDy=0;" edge="1" parent="1">
          <mxGeometry relative="1" as="geometry">
            <mxPoint x="120" y="230" as="targetPoint" />
            <Array as="points">
              <mxPoint x="260" y="330" />
              <mxPoint x="260" y="230" />
            </Array>
            <mxPoint x="420" y="330" as="sourcePoint" />
          </mxGeometry>
        </mxCell>
        <mxCell id="kI7Ht498mfInv19REZDN-9" value="View recipe" style="ellipse;whiteSpace=wrap;html=1;" vertex="1" parent="1">
          <mxGeometry x="350" y="290" width="120" height="80" as="geometry" />
        </mxCell>
        <mxCell id="kI7Ht498mfInv19REZDN-17" style="edgeStyle=orthogonalEdgeStyle;rounded=0;orthogonalLoop=1;jettySize=auto;html=1;exitX=0;exitY=0.5;exitDx=0;exitDy=0;" edge="1" parent="1" source="kI7Ht498mfInv19REZDN-36">
          <mxGeometry relative="1" as="geometry">
            <mxPoint x="120" y="230" as="targetPoint" />
            <Array as="points">
              <mxPoint x="350" y="540" />
              <mxPoint x="260" y="540" />
              <mxPoint x="260" y="230" />
            </Array>
            <mxPoint x="420" y="544" as="sourcePoint" />
          </mxGeometry>
        </mxCell>
        <mxCell id="kI7Ht498mfInv19REZDN-20" value="Meal Plans include:&lt;br&gt;Breakfast, Lunch, Dinner and Dessert Meals" style="shape=note;whiteSpace=wrap;html=1;backgroundOutline=1;darkOpacity=0.05;" vertex="1" parent="1">
          <mxGeometry x="40" y="20" width="120" height="135" as="geometry" />
        </mxCell>
        <mxCell id="kI7Ht498mfInv19REZDN-26" style="edgeStyle=orthogonalEdgeStyle;rounded=0;orthogonalLoop=1;jettySize=auto;html=1;exitX=0;exitY=0.5;exitDx=0;exitDy=0;dashed=1;" edge="1" parent="1" source="kI7Ht498mfInv19REZDN-25" target="kI7Ht498mfInv19REZDN-4">
          <mxGeometry relative="1" as="geometry">
            <Array as="points">
              <mxPoint x="590" y="231" />
              <mxPoint x="590" y="231" />
            </Array>
          </mxGeometry>
        </mxCell>
        <mxCell id="kI7Ht498mfInv19REZDN-28" value="&amp;lt;&amp;lt;include&amp;gt;&amp;gt;" style="edgeLabel;html=1;align=center;verticalAlign=middle;resizable=0;points=[];" vertex="1" connectable="0" parent="kI7Ht498mfInv19REZDN-26">
          <mxGeometry x="-0.2333" relative="1" as="geometry">
            <mxPoint x="-6" as="offset" />
          </mxGeometry>
        </mxCell>
        <mxCell id="kI7Ht498mfInv19REZDN-25" value="Watch meal preparation." style="ellipse;whiteSpace=wrap;html=1;" vertex="1" parent="1">
          <mxGeometry x="600" y="191" width="120" height="80" as="geometry" />
        </mxCell>
        <mxCell id="kI7Ht498mfInv19REZDN-31" value="Bookmark a Recipe" style="ellipse;whiteSpace=wrap;html=1;" vertex="1" parent="1">
          <mxGeometry x="350" y="400" width="120" height="80" as="geometry" />
        </mxCell>
        <mxCell id="kI7Ht498mfInv19REZDN-36" value="Create meal plan" style="ellipse;whiteSpace=wrap;html=1;" vertex="1" parent="1">
          <mxGeometry x="350" y="505" width="120" height="80" as="geometry" />
        </mxCell>
      </root>
    </mxGraphModel>
  </diagram>
</mxfile>
